<?xml version="1.0" encoding="UTF-8"?>
<svg version="1.1" xmlns="http://www.w3.org/2000/svg" width="1024" height="1024">
<path d="M0 0 C337.92 0 675.84 0 1024 0 C1024 337.92 1024 675.84 1024 1024 C686.08 1024 348.16 1024 0 1024 C0 686.08 0 348.16 0 0 Z " fill="#093F50" transform="translate(0,0)"/>
<path d="M0 0 C0.96097355 -0.00382555 1.9219471 -0.00765109 2.91204107 -0.01159257 C6.10510384 -0.02184185 9.29798407 -0.01794579 12.49105835 -0.01396179 C14.79166834 -0.01831284 17.09227689 -0.0234973 19.3928833 -0.02944946 C25.62458805 -0.04281117 31.85623204 -0.04342107 38.08794832 -0.04088616 C43.30116554 -0.03981412 48.51437059 -0.04470599 53.7275852 -0.04949158 C66.73843515 -0.06121108 79.74925063 -0.06036739 92.76010279 -0.05393478 C104.02631473 -0.04877206 115.29244003 -0.06000681 126.55863483 -0.07903299 C138.15748537 -0.09846898 149.75629135 -0.10636655 161.35515821 -0.10290974 C167.85459695 -0.10110266 174.35395641 -0.10367517 180.85338211 -0.11762428 C186.97168579 -0.13026436 193.08981719 -0.12820028 199.20811844 -0.11521339 C201.44286153 -0.11286115 203.67761698 -0.11553328 205.91234589 -0.12383652 C229.64439133 -0.20559569 249.77245038 2.42802469 267.49545288 19.74848938 C279.78116365 32.55954872 285.1022237 48.84510709 285.08609009 66.29632568 C285.09054677 67.80722175 285.09054677 67.80722175 285.09509349 69.34864098 C285.10376163 72.72224797 285.10528717 76.0958194 285.10678101 79.46943665 C285.11141062 81.88930334 285.11643548 84.30916931 285.12182617 86.72903442 C285.13494096 93.30385593 285.14143084 99.87867007 285.14583683 106.45350146 C285.1486045 110.56467552 285.1528429 114.67584725 285.157341 118.78701973 C285.16953237 130.1852971 285.17983068 141.5835726 285.18321609 152.98185635 C285.18343566 153.71083978 285.18365523 154.43982321 285.18388145 155.19089705 C285.18409972 155.92156366 285.184318 156.65223027 285.18454289 157.4050383 C285.18498635 158.88548879 285.18543291 160.36593928 285.18588257 161.84638977 C285.186104 162.58073457 285.18632543 163.31507937 285.18655357 164.07167704 C285.19049601 175.95313269 285.20793368 187.8345268 285.23124209 199.71595871 C285.25501787 211.93504761 285.26742084 224.15410573 285.26858401 236.37321812 C285.26949749 243.22536227 285.27516647 250.07742631 285.29340363 256.92954826 C285.31051673 263.38182444 285.3120109 269.83398962 285.30326462 276.28628349 C285.30249735 278.64561368 285.30679574 281.0049522 285.31672287 283.36426163 C285.43932612 314.33623592 285.43932612 314.33623592 278.32064819 327.57319641 C277.97582397 328.2363385 277.63099976 328.89948059 277.27572632 329.5827179 C274.00252361 335.61860359 269.90808843 340.5186132 264.94564819 345.26069641 C264.02719116 346.20815735 264.02719116 346.20815735 263.09017944 347.17475891 C247.14900886 362.60608395 226.27757981 362.71054811 205.56307983 362.66474915 C203.22084733 362.6704604 200.87861761 362.67742757 198.53639221 362.68554688 C192.20992905 362.70340889 185.88360512 362.7023231 179.55712438 362.69660449 C173.58979309 362.69310936 167.62247863 362.7010903 161.65515261 362.70796514 C149.11519024 362.72165324 136.57529048 362.7162783 124.03532957 362.70477993 C112.59407252 362.69484886 101.15297721 362.70779256 89.71174509 362.73171412 C77.92631334 362.75616725 66.14095674 362.76569794 54.35550016 362.7590614 C47.75386085 362.75558326 41.15232988 362.75804827 34.55070686 362.77531242 C28.34119893 362.79084429 22.13199858 362.78675671 15.92250252 362.76800728 C13.65347347 362.76433881 11.38442131 362.76737853 9.11541367 362.77789307 C-12.34675391 362.86969941 -30.64937184 360.09115774 -46.84732056 344.49507141 C-47.57564087 343.75772766 -48.30396118 343.02038391 -49.05435181 342.26069641 C-49.68985962 341.64710266 -50.32536743 341.03350891 -50.98013306 340.40132141 C-67.05390809 323.72166128 -67.65465524 300.72530903 -67.55606079 279.04682922 C-67.55985158 276.6516488 -67.56535785 274.25647058 -67.57243347 271.86129761 C-67.58630301 265.40493108 -67.57527957 258.94883356 -67.55872226 252.49248219 C-67.54450018 246.40113654 -67.55049267 240.30979331 -67.55385197 234.2184374 C-67.5597092 222.15126212 -67.54564101 210.08419171 -67.52090454 198.01704407 C-67.49696871 186.33894424 -67.48991134 174.66098434 -67.50039673 162.98286438 C-67.51183242 150.22372957 -67.51370499 137.46465922 -67.49929863 124.70552516 C-67.49777299 123.3425959 -67.49625263 121.97966664 -67.49473763 120.61673737 C-67.49397981 119.9463744 -67.493222 119.27601143 -67.49244122 118.58533444 C-67.48772051 113.88640606 -67.48953386 109.1875067 -67.49380302 104.4885788 C-67.49859336 98.1551304 -67.48838603 91.82187431 -67.46684837 85.48846245 C-67.46130926 83.17183264 -67.46078858 80.85518424 -67.46580124 78.53855324 C-67.51149869 54.380752 -63.70502995 35.7835421 -46.67935181 17.44819641 C-33.87964676 5.35468199 -17.30690601 -0.07447825 0 0 Z " fill="#093F4F" transform="translate(606.0543518066406,287.7393035888672)"/>
<path d="M0 0 C14.37674829 12.57305588 24.43654702 26.3843536 32.140625 43.7734375 C32.42421875 44.40975098 32.7078125 45.04606445 33 45.70166016 C37.9186775 57.00939812 40.18944316 68.64303921 42.140625 80.7734375 C42.3365625 81.87042969 42.5325 82.96742188 42.734375 84.09765625 C46.63830529 119.42071783 40.61265754 158.02910816 18.60546875 186.69921875 C14.95668507 191.2500789 11.22790031 195.61008769 7.140625 199.7734375 C6.36847656 200.57007813 5.59632813 201.36671875 4.80078125 202.1875 C-20.09522685 226.35465733 -53.07643207 235.19500982 -86.95703125 235.07373047 C-120.38610158 234.53936601 -151.75866906 223.72833322 -175.46923828 199.63232422 C-201.93032773 171.84783567 -210.77721583 133.97390516 -209.95263672 96.45214844 C-209.49184378 83.21701735 -207.73325445 70.4424928 -203.859375 57.7734375 C-203.65328613 57.09216797 -203.44719727 56.41089844 -203.23486328 55.70898438 C-198.46829313 40.32191125 -191.67930063 25.84422159 -180.859375 13.7734375 C-180.13878906 12.93425781 -179.41820312 12.09507812 -178.67578125 11.23046875 C-162.54824516 -7.24492354 -142.3014265 -18.56022911 -118.859375 -25.2265625 C-117.745625 -25.54753906 -116.631875 -25.86851562 -115.484375 -26.19921875 C-76.77732452 -35.32423613 -30.40607994 -25.71370042 0 0 Z " fill="#FDFDFD" transform="translate(451.859375,390.2265625)"/>
<path d="M0 0 C0.96097355 -0.00382555 1.9219471 -0.00765109 2.91204107 -0.01159257 C6.10510384 -0.02184185 9.29798407 -0.01794579 12.49105835 -0.01396179 C14.79166834 -0.01831284 17.09227689 -0.0234973 19.3928833 -0.02944946 C25.62458805 -0.04281117 31.85623204 -0.04342107 38.08794832 -0.04088616 C43.30116554 -0.03981412 48.51437059 -0.04470599 53.7275852 -0.04949158 C66.73843515 -0.06121108 79.74925063 -0.06036739 92.76010279 -0.05393478 C104.02631473 -0.04877206 115.29244003 -0.06000681 126.55863483 -0.07903299 C138.15748537 -0.09846898 149.75629135 -0.10636655 161.35515821 -0.10290974 C167.85459695 -0.10110266 174.35395641 -0.10367517 180.85338211 -0.11762428 C186.97168579 -0.13026436 193.08981719 -0.12820028 199.20811844 -0.11521339 C201.44286153 -0.11286115 203.67761698 -0.11553328 205.91234589 -0.12383652 C229.64439133 -0.20559569 249.77245038 2.42802469 267.49545288 19.74848938 C279.78116365 32.55954872 285.1022237 48.84510709 285.08609009 66.29632568 C285.09054677 67.80722175 285.09054677 67.80722175 285.09509349 69.34864098 C285.10376163 72.72224797 285.10528717 76.0958194 285.10678101 79.46943665 C285.11141062 81.88930334 285.11643548 84.30916931 285.12182617 86.72903442 C285.13494096 93.30385593 285.14143084 99.87867007 285.14583683 106.45350146 C285.1486045 110.56467552 285.1528429 114.67584725 285.157341 118.78701973 C285.16953237 130.1852971 285.17983068 141.5835726 285.18321609 152.98185635 C285.18343566 153.71083978 285.18365523 154.43982321 285.18388145 155.19089705 C285.18409972 155.92156366 285.184318 156.65223027 285.18454289 157.4050383 C285.18498635 158.88548879 285.18543291 160.36593928 285.18588257 161.84638977 C285.186104 162.58073457 285.18632543 163.31507937 285.18655357 164.07167704 C285.19049601 175.95313269 285.20793368 187.8345268 285.23124209 199.71595871 C285.25501787 211.93504761 285.26742084 224.15410573 285.26858401 236.37321812 C285.26949749 243.22536227 285.27516647 250.07742631 285.29340363 256.92954826 C285.31051673 263.38182444 285.3120109 269.83398962 285.30326462 276.28628349 C285.30249735 278.64561368 285.30679574 281.0049522 285.31672287 283.36426163 C285.43932612 314.33623592 285.43932612 314.33623592 278.32064819 327.57319641 C277.97582397 328.2363385 277.63099976 328.89948059 277.27572632 329.5827179 C274.00252361 335.61860359 269.90808843 340.5186132 264.94564819 345.26069641 C264.02719116 346.20815735 264.02719116 346.20815735 263.09017944 347.17475891 C247.14900886 362.60608395 226.27757981 362.71054811 205.56307983 362.66474915 C203.22084733 362.6704604 200.87861761 362.67742757 198.53639221 362.68554688 C192.20992905 362.70340889 185.88360512 362.7023231 179.55712438 362.69660449 C173.58979309 362.69310936 167.62247863 362.7010903 161.65515261 362.70796514 C149.11519024 362.72165324 136.57529048 362.7162783 124.03532957 362.70477993 C112.59407252 362.69484886 101.15297721 362.70779256 89.71174509 362.73171412 C77.92631334 362.75616725 66.14095674 362.76569794 54.35550016 362.7590614 C47.75386085 362.75558326 41.15232988 362.75804827 34.55070686 362.77531242 C28.34119893 362.79084429 22.13199858 362.78675671 15.92250252 362.76800728 C13.65347347 362.76433881 11.38442131 362.76737853 9.11541367 362.77789307 C-12.34675391 362.86969941 -30.64937184 360.09115774 -46.84732056 344.49507141 C-47.57564087 343.75772766 -48.30396118 343.02038391 -49.05435181 342.26069641 C-49.68985962 341.64710266 -50.32536743 341.03350891 -50.98013306 340.40132141 C-67.05390809 323.72166128 -67.65465524 300.72530903 -67.55606079 279.04682922 C-67.55985158 276.6516488 -67.56535785 274.25647058 -67.57243347 271.86129761 C-67.58630301 265.40493108 -67.57527957 258.94883356 -67.55872226 252.49248219 C-67.54450018 246.40113654 -67.55049267 240.30979331 -67.55385197 234.2184374 C-67.5597092 222.15126212 -67.54564101 210.08419171 -67.52090454 198.01704407 C-67.49696871 186.33894424 -67.48991134 174.66098434 -67.50039673 162.98286438 C-67.51183242 150.22372957 -67.51370499 137.46465922 -67.49929863 124.70552516 C-67.49777299 123.3425959 -67.49625263 121.97966664 -67.49473763 120.61673737 C-67.49397981 119.9463744 -67.493222 119.27601143 -67.49244122 118.58533444 C-67.48772051 113.88640606 -67.48953386 109.1875067 -67.49380302 104.4885788 C-67.49859336 98.1551304 -67.48838603 91.82187431 -67.46684837 85.48846245 C-67.46130926 83.17183264 -67.46078858 80.85518424 -67.46580124 78.53855324 C-67.51149869 54.380752 -63.70502995 35.7835421 -46.67935181 17.44819641 C-33.87964676 5.35468199 -17.30690601 -0.07447825 0 0 Z M-33.05435181 40.26069641 C-43.91311277 53.35645534 -43.63450734 67.24758595 -43.57192993 83.4420929 C-43.57735551 85.79860363 -43.58448061 88.15511098 -43.59317017 90.51161194 C-43.61135537 96.88974716 -43.60435538 103.26762263 -43.59165382 109.64576221 C-43.58559718 113.63483633 -43.58589107 117.62387343 -43.58961487 121.61294746 C-43.5902278 122.27685446 -43.59084073 122.94076145 -43.59147224 123.62478684 C-43.59275125 124.97385821 -43.5940481 126.32292956 -43.5953626 127.67200089 C-43.60674741 140.29915436 -43.59368825 152.92619136 -43.57216114 165.55332572 C-43.55429617 176.3667296 -43.55739332 187.17996165 -43.57583618 197.99336243 C-43.59728729 210.57629233 -43.60564463 223.15912032 -43.59338713 235.74206597 C-43.59211305 237.08625383 -43.59085556 238.4304417 -43.58961487 239.77462959 C-43.58899777 240.43584676 -43.58838066 241.09706392 -43.58774486 241.77831797 C-43.58430434 246.41754982 -43.59028984 251.05671396 -43.59953308 255.6959362 C-43.61112662 261.95137122 -43.6030015 268.20648325 -43.57995605 274.46188354 C-43.57468749 276.75151599 -43.5761508 279.04117582 -43.58500671 281.3307972 C-43.6469913 298.99078005 -42.3409029 312.59925847 -29.67935181 326.01069641 C-16.33892635 338.59545507 -0.97106167 338.84824342 16.39852905 338.77827454 C18.66489612 338.78370162 20.93125966 338.79082756 23.19761658 338.79951477 C29.3257713 338.8176821 35.45365533 338.81070744 41.58181453 338.79799843 C48.0112508 338.78783537 54.44066469 338.79727339 60.87010193 338.80354309 C72.35662097 338.81127523 83.84300227 338.79888297 95.32949973 338.77850574 C105.72073425 338.76064141 116.11178995 338.7637384 126.50302124 338.78218079 C138.60035208 338.80364144 150.69754273 338.81152566 162.79489619 338.79973173 C169.18746992 338.79351408 175.57992079 338.79261345 181.9724865 338.80587769 C187.98499291 338.81748289 193.99716364 338.80932509 200.00963402 338.78630066 C202.20854385 338.78103826 204.40748221 338.7824847 206.60638046 338.79135132 C221.50354418 338.84585555 235.3198734 338.88336232 246.94564819 328.26069641 C247.54892944 327.7592511 248.15221069 327.25780579 248.77377319 326.74116516 C256.9464815 319.43902796 261.2819937 308.69941813 262.1322639 297.88777792 C262.20701082 295.33566462 262.22195605 292.79040592 262.21307373 290.23721313 C262.2198704 288.78266709 262.2198704 288.78266709 262.22680438 287.29873627 C262.23939954 284.07026805 262.23783115 280.84196959 262.23617554 277.61347961 C262.24216387 275.29006739 262.24897012 272.96665715 262.25653076 270.64324951 C262.27416782 264.34551195 262.27888521 258.04782877 262.28016233 251.7500689 C262.2815859 247.81091452 262.28585942 243.87177387 262.29115677 239.93262291 C262.30869661 226.88637634 262.31799796 213.84016388 262.31649582 200.79390547 C262.31641591 200.09176728 262.316336 199.38962909 262.31625366 198.66621399 C262.31613102 197.61170731 262.31613102 197.61170731 262.3160059 196.53589746 C262.31519361 185.151851 262.33432054 173.76793703 262.3625304 162.38392887 C262.39132699 150.66985839 262.40506695 138.95585239 262.40334284 127.24174565 C262.40283414 120.67525654 262.40846693 114.10891742 262.42969894 107.54245949 C262.44913608 101.36258148 262.44916816 95.1829957 262.43466568 89.00310707 C262.43258323 86.74333263 262.43724458 84.48353963 262.4493866 82.22379684 C262.54184975 63.81360963 261.18316783 49.0979657 248.19564819 35.01069641 C237.65186815 24.89028038 223.70956483 23.10554491 209.71231079 23.12025452 C208.3671856 23.11579783 208.3671856 23.11579783 206.99488616 23.11125112 C204.00743523 23.10261976 201.02002464 23.10106061 198.03256226 23.0995636 C195.88339147 23.09493154 193.73422151 23.08990636 191.58505249 23.08451843 C185.75846034 23.07143119 179.9318797 23.06495685 174.10527515 23.06050777 C170.46146555 23.05757157 166.81765905 23.05346576 163.17385101 23.0490036 C151.76257411 23.03533937 140.35130436 23.02566703 128.94001985 23.02180171 C115.7866569 23.01732119 102.63339789 22.99976894 89.48006654 22.97080112 C79.29890807 22.94916035 69.1177788 22.93909617 58.93659759 22.93776059 C52.86202095 22.93671444 46.78754215 22.93084672 40.71298981 22.91294098 C34.99691165 22.89641855 29.28100447 22.89432508 23.56491089 22.90307999 C21.47361543 22.90384808 19.38231061 22.89953787 17.29103851 22.88962173 C-2.65501818 22.80063133 -18.712877 25.12522992 -33.05435181 40.26069641 Z " fill="#FCFCFC" transform="translate(606.0543518066406,287.7393035888672)"/>
<path d="M0 0 C0.886875 0.50789063 1.77375 1.01578125 2.6875 1.5390625 C19.12160056 11.7533125 28.77416313 29.58075399 33.75 47.875 C38.90323954 70.95785405 38.23589806 93.45842909 31 116 C30.58814453 117.31097656 30.58814453 117.31097656 30.16796875 118.6484375 C23.27269045 138.10634612 6.63446405 152.20737351 -11.1875 161.375 C-11.85289795 161.72135498 -12.5182959 162.06770996 -13.20385742 162.42456055 C-13.85201416 162.74593994 -14.5001709 163.06731934 -15.16796875 163.3984375 C-16.02297974 163.82648682 -16.02297974 163.82648682 -16.89526367 164.26318359 C-24.39209657 166.88764035 -32.85819309 166.25507232 -40.6875 166.3125 C-41.98623047 166.34150391 -43.28496094 166.37050781 -44.62304688 166.40039062 C-61.62504641 166.51140318 -75.35685455 160.07616817 -88 149 C-88.60457031 148.47921875 -89.20914062 147.9584375 -89.83203125 147.421875 C-106.78515503 131.69954006 -116.08781097 109.02911547 -117.12548828 86.24462891 C-117.99182158 59.7191577 -113.31397703 35.9507028 -96 15 C-95.401875 14.20078125 -94.80375 13.4015625 -94.1875 12.578125 C-70.32340285 -15.54741807 -30.36937126 -17.54092995 0 0 Z " fill="#093F4F" transform="translate(409,417)"/>
<path d="M0 0 C16.83 0 33.66 0 51 0 C51 83.16 51 166.32 51 252 C34.17 252 17.34 252 0 252 C0 168.84 0 85.68 0 0 Z " fill="#FDFDFD" transform="translate(153,368)"/>
<path d="M0 0 C4.75247678 3.13231424 8.2953017 7.25819741 9.75 12.8125 C10.32063783 19.88840912 9.14527718 24.78317886 4.625 30.5 C1.55956011 32.96567991 -1.2691159 34.23323213 -4.86328125 35.7421875 C-17.02683066 41.19687251 -24.73332763 51.82312891 -32.9140625 61.94140625 C-35.429226 65.03278613 -37.9862327 68.08455686 -40.5625 71.125 C-41.25073853 71.93795532 -41.25073853 71.93795532 -41.95288086 72.76733398 C-44.86137662 76.19540177 -47.79480195 79.60091638 -50.73876953 82.99853516 C-52.7568135 85.33737965 -54.75565524 87.69212711 -56.75048828 90.05078125 C-57.74906294 91.22396828 -58.75527409 92.39069857 -59.76904297 93.55078125 C-66.37354138 101.12810154 -70.54137691 107.63770071 -73.0546875 117.4375 C-74.74727446 122.21656907 -77.15366212 125.42728734 -81.4609375 128.2734375 C-87.74852779 130.92920668 -92.684476 131.80923518 -99.3125 129.625 C-103.80405551 127.74481397 -107.82302417 125.45269415 -110.21484375 121.02734375 C-111.94612229 116.69484074 -112.80283696 112.30828954 -113.4296875 107.6953125 C-114.10431948 105.57320866 -114.10431948 105.57320866 -116.51953125 104.78125 C-117.42058594 104.4615625 -118.32164062 104.141875 -119.25 103.8125 C-120.86410149 102.61747008 -122.46766041 101.40811739 -124.0625 100.1875 C-131.12131221 95.60596742 -138.05812182 95.47320597 -146.25 96.8125 C-151.965258 98.9086208 -156.44345337 102.28939626 -160.9375 106.3125 C-161.82489868 107.09318848 -161.82489868 107.09318848 -162.73022461 107.88964844 C-163.96113308 108.97732926 -165.18809161 110.06949593 -166.41113281 111.16601562 C-168.21904002 112.78477906 -170.04220898 114.38491097 -171.8671875 115.984375 C-179.05758611 122.35921226 -184.86193487 127.99854364 -187.6875 137.375 C-189.38028554 142.82012683 -192.13999104 147.03625505 -197.171875 149.91015625 C-202.18323347 151.99822228 -206.98272542 152.80770432 -212.2890625 151.19140625 C-217.89439647 148.82960823 -220.75491572 145.29526032 -223.25 139.8125 C-224.78119031 134.79414724 -225.28682057 129.56927994 -223.4140625 124.58984375 C-220.45379015 119.27526084 -216.96582764 116.71777588 -211.25 114.8125 C-208.23660955 114.04034345 -205.22918273 113.33350235 -202.1796875 112.71875 C-195.96642063 110.79677945 -191.256493 106.26627401 -186.4375 102.0625 C-185.82729004 101.53172852 -185.21708008 101.00095703 -184.58837891 100.45410156 C-183.37001968 99.3936242 -182.15254805 98.3321261 -180.93603516 97.26953125 C-179.46917844 96.00190876 -177.97688361 94.76383995 -176.48046875 93.53125 C-169.89755586 88.02911385 -166.72516239 83.24959371 -165.375 74.75 C-164.43604498 69.44286294 -162.37313204 66.25641539 -158.25 62.8125 C-152.31184938 59.13084661 -146.11798853 58.96117552 -139.25 59.8125 C-133.63740352 62.46572743 -129.4471619 66.91804606 -127.0625 72.68359375 C-124.69739074 76.76646555 -121.87868526 78.5448982 -117.9375 81 C-117.28587891 81.42474609 -116.63425781 81.84949219 -115.96289062 82.28710938 C-107.15349232 87.9572226 -100.85202444 89.7155896 -90.25 88.8125 C-82.32724726 87.04120866 -77.13298515 80.82490327 -72.1015625 74.91796875 C-69.67681118 72.16070934 -67.07793294 69.61188353 -64.4375 67.0625 C-62.58997612 65.16218973 -60.87984743 63.2245691 -59.16015625 61.2109375 C-53.79224274 55.02588759 -47.80802507 49.42900546 -41.90039062 43.765625 C-33.74097149 35.76458424 -27.4105424 28.21793593 -26.9375 16.5 C-26.44357668 9.6610617 -24.87140725 6.23226053 -19.8125 1.5625 C-13.11192891 -3.01349977 -7.49296117 -2.73781273 0 0 Z " fill="#FBFCFC" transform="translate(820.25,361.1875)"/>
<path d="M0 0 C9.9 0 19.8 0 30 0 C30 35.97 30 71.94 30 109 C20.1 109 10.2 109 0 109 C0 73.03 0 37.06 0 0 Z " fill="#FEFEFE" transform="translate(794,491)"/>
<path d="M0 0 C9.9 0 19.8 0 30 0 C30 23.43 30 46.86 30 71 C20.1 71 10.2 71 0 71 C0 47.57 0 24.14 0 0 Z " fill="#FAFBFB" transform="translate(737,529)"/>
<path d="M0 0 C9.24 0 18.48 0 28 0 C28 15.84 28 31.68 28 48 C18.76 48 9.52 48 0 48 C0 32.16 0 16.32 0 0 Z " fill="#FEFEFE" transform="translate(684,552)"/>
<path d="M0 0 C0 3.21536008 -0.34952303 4.31413064 -2 7 C-3.9453125 8.921875 -3.9453125 8.921875 -6.125 10.75 C-7.21167969 11.67039062 -7.21167969 11.67039062 -8.3203125 12.609375 C-8.87460937 13.06828125 -9.42890625 13.5271875 -10 14 C-10 9.84439769 -7.7179548 8.15900671 -5 5.3125 C-4.52304687 4.80138672 -4.04609375 4.29027344 -3.5546875 3.76367188 C-2.37640085 2.50290516 -1.18904747 1.25062314 0 0 Z " fill="#08293A" transform="translate(470,577)"/>
<path d="M0 0 C1.50623915 5.12570935 0.42001821 9.92850638 -1 15 C-1.66 15 -2.32 15 -3 15 C-3.36263859 9.1977825 -2.25684543 5.36000789 0 0 Z " fill="#0E2F3E" transform="translate(297,461)"/>
<path d="M0 0 C0.33 0.99 0.66 1.98 1 3 C0.67 3.33 0.34 3.66 0 4 C-1.85772162 3.91015699 -3.71247985 3.75388139 -5.5625 3.5625 C-7.08037109 3.40974609 -7.08037109 3.40974609 -8.62890625 3.25390625 C-9.41136719 3.17011719 -10.19382812 3.08632813 -11 3 C-11 2.67 -11 2.34 -11 2 C-5.555 1.01 -5.555 1.01 0 0 Z " fill="#092A39" transform="translate(735,490)"/>
</svg>
